# xmcd
#
# Track frame offsets:
#	150
#	16156
#	31723
#	47524
#
# Disc length: 942 seconds
#
# Revision: 0
# Processed by: cddbd v1.5PL3 Copyright (c) Steve Scherf et al.
# Submitted via: audiograbber 1.82.01
#
DISCID=1e03ac04
DTITLE=Ricky Fanté - Introducing Ricky Fanté
DYEAR=2003
DGENRE=Soul
TTITLE0=I Let You Go
TTITLE1=It Ain't Easy
TTITLE2=Smile
TTITLE3=It's Over Now
EXTD=
EXTT0=
EXTT1=
EXTT2=
EXTT3=
PLAYORDER=
